<svg width="117" height="117" viewBox="0 0 117 117" fill="none" xmlns="http://www.w3.org/2000/svg">
<circle cx="58.5" cy="58.5" r="58.5" fill="#FFC100"/>
<rect width="62.6786" height="62.6786" transform="translate(27.1606 27.1604)" fill="#FFC100"/>
<path d="M68.9465 49.0982L45.7684 72.3415C45.2461 72.8638 44.6254 73.125 43.9064 73.125C43.1891 73.125 42.5692 72.8638 42.0469 72.3415C41.5246 71.8192 41.2634 71.1985 41.2634 70.4794C41.2634 69.7621 41.5246 69.1423 42.0469 68.62L65.2902 45.442H45.442C44.702 45.442 44.0814 45.1921 43.5799 44.6924C43.0802 44.191 42.8304 43.5703 42.8304 42.8304C42.8304 42.0904 43.0802 41.4697 43.5799 40.9683C44.0814 40.4686 44.702 40.2188 45.442 40.2188H71.5581C72.298 40.2188 72.9178 40.4686 73.4175 40.9683C73.919 41.4697 74.1697 42.0904 74.1697 42.8304V68.9464C74.1697 69.6864 73.919 70.3062 73.4175 70.8059C72.9178 71.3073 72.298 71.558 71.5581 71.558C70.8181 71.558 70.1983 71.3073 69.6986 70.8059C69.1972 70.3062 68.9465 69.6864 68.9465 68.9464V49.0982Z" fill="#091416"/>
</svg>
