<svg width="80" height="80" viewBox="0 0 80 80" fill="none" xmlns="http://www.w3.org/2000/svg">
<circle cx="40" cy="40" r="40" fill="white" fill-opacity="0.5"/>
<path d="M46.6667 32.2609L31.875 47.0942C31.5417 47.4276 31.1456 47.5942 30.6867 47.5942C30.2289 47.5942 29.8333 47.4276 29.5 47.0942C29.1667 46.7609 29 46.3648 29 45.9059C29 45.4481 29.1667 45.0526 29.5 44.7192L44.3333 29.9276H31.6667C31.1944 29.9276 30.7983 29.7681 30.4783 29.4492C30.1594 29.1292 30 28.7331 30 28.2609C30 27.7887 30.1594 27.3926 30.4783 27.0726C30.7983 26.7537 31.1944 26.5942 31.6667 26.5942H48.3333C48.8056 26.5942 49.2011 26.7537 49.52 27.0726C49.84 27.3926 50 27.7887 50 28.2609V44.9276C50 45.3998 49.84 45.7954 49.52 46.1142C49.2011 46.4342 48.8056 46.5942 48.3333 46.5942C47.8611 46.5942 47.4656 46.4342 47.1467 46.1142C46.8267 45.7954 46.6667 45.3998 46.6667 44.9276V32.2609Z" fill="white"/>
<rect x="28.6956" y="51.3043" width="21.7391" height="2.6087" rx="1.30435" fill="white"/>
</svg>
