<svg width="62" height="62" viewBox="0 0 62 62" fill="none" xmlns="http://www.w3.org/2000/svg">
<circle cx="31" cy="31" r="30" stroke="#091416"/>
<path d="M36.3571 26.1786L24.4709 38.0982C24.2031 38.3661 23.8848 38.5 23.516 38.5C23.1481 38.5 22.8303 38.3661 22.5624 38.0982C22.2946 37.8304 22.1606 37.5121 22.1606 37.1433C22.1606 36.7754 22.2946 36.4576 22.5624 36.1897L34.4821 24.3036H24.3035C23.924 24.3036 23.6057 24.1754 23.3486 23.9192C23.0923 23.6621 22.9642 23.3438 22.9642 22.9643C22.9642 22.5848 23.0923 22.2665 23.3486 22.0094C23.6057 21.7531 23.924 21.625 24.3035 21.625H37.6964C38.0758 21.625 38.3937 21.7531 38.6499 22.0094C38.9071 22.2665 39.0356 22.5848 39.0356 22.9643V36.3571C39.0356 36.7366 38.9071 37.0545 38.6499 37.3107C38.3937 37.5679 38.0758 37.6964 37.6964 37.6964C37.3169 37.6964 36.999 37.5679 36.7428 37.3107C36.4856 37.0545 36.3571 36.7366 36.3571 36.3571V26.1786Z" fill="#091416"/>
</svg>
