<svg width="100" height="100" viewBox="0 0 100 100" fill="none" xmlns="http://www.w3.org/2000/svg">
<circle cx="50.4645" cy="49.6126" r="49.0778" stroke="white" stroke-width="0.876389"/>
<path d="M59.2277 41.7249L39.7828 61.2245C39.3447 61.6627 38.8239 61.8818 38.2207 61.8818C37.6189 61.8818 37.0989 61.6627 36.6607 61.2245C36.2225 60.7863 36.0034 60.2656 36.0034 59.6624C36.0034 59.0606 36.2225 58.5406 36.6607 58.1024L56.1604 38.6575H39.509C38.8882 38.6575 38.3675 38.4479 37.9468 38.0287C37.5276 37.608 37.318 37.0873 37.318 36.4665C37.318 35.8458 37.5276 35.325 37.9468 34.9044C38.3675 34.4852 38.8882 34.2756 39.509 34.2756H61.4187C62.0395 34.2756 62.5595 34.4852 62.9787 34.9044C63.3993 35.325 63.6097 35.8458 63.6097 36.4665V58.3763C63.6097 58.997 63.3993 59.517 62.9787 59.9362C62.5595 60.3569 62.0395 60.5672 61.4187 60.5672C60.7979 60.5672 60.2779 60.3569 59.8587 59.9362C59.4381 59.517 59.2277 58.997 59.2277 58.3763V41.7249Z" fill="white"/>
</svg>
