<svg width="24" height="24" viewBox="0 0 24 24" fill="none" xmlns="http://www.w3.org/2000/svg">
<g clip-path="url(#clip0_66_601)">
<path d="M12 2C10.3424 2 8.75269 2.65848 7.58058 3.83058C6.40848 5.00269 5.75 6.5924 5.75 8.25C5.75 14.5 12 22 12 22C12 22 18.25 14.5 18.25 8.25C18.25 6.5924 17.5915 5.00269 16.4194 3.83058C15.2473 2.65848 13.6576 2 12 2V2ZM12 12C11.0054 12 10.0516 11.6049 9.34835 10.9017C8.64509 10.1984 8.25 9.24456 8.25 8.25C8.25 7.25544 8.64509 6.30161 9.34835 5.59835C10.0516 4.89509 11.0054 4.5 12 4.5C12.9946 4.5 13.9484 4.89509 14.6517 5.59835C15.3549 6.30161 15.75 7.25544 15.75 8.25C15.75 9.24456 15.3549 10.1984 14.6517 10.9017C13.9484 11.6049 12.9946 12 12 12Z" fill="white"/>
</g>
<defs>
<clipPath id="clip0_66_601">
<rect width="20" height="20" fill="white" transform="translate(2 2)"/>
</clipPath>
</defs>
</svg>
