<svg width="42" height="42" viewBox="0 0 42 42" fill="none" xmlns="http://www.w3.org/2000/svg">
<rect x="1" y="1" width="40" height="40" rx="20" stroke="white"/>
<path fill-rule="evenodd" clip-rule="evenodd" d="M14.0855 19.9717C14.0855 16.7143 16.7261 14.0737 19.9835 14.0737C23.241 14.0737 25.8816 16.7143 25.8816 19.9717C25.8816 23.2292 23.241 25.8698 19.9835 25.8698C16.7261 25.8698 14.0855 23.2292 14.0855 19.9717ZM19.9835 12.6549C15.9426 12.6549 12.6667 15.9308 12.6667 19.9717C12.6667 24.0127 15.9426 27.2885 19.9835 27.2885C21.8781 27.2885 23.6045 26.5685 24.904 25.3871L28.1224 28.6055C28.3995 28.8825 28.8486 28.8825 29.1256 28.6055C29.4026 28.3285 29.4026 27.8793 29.1256 27.6023L25.8579 24.3346C26.7641 23.1164 27.3003 21.6067 27.3003 19.9717C27.3003 15.9308 24.0245 12.6549 19.9835 12.6549Z" fill="white"/>
</svg>
