<svg width="42" height="42" viewBox="0 0 42 42" fill="none" xmlns="http://www.w3.org/2000/svg">
<rect x="1" y="1" width="40" height="40" rx="20" stroke="white"/>
<path d="M21.0079 13.3759C22.8793 13.3759 24.3963 14.893 24.3963 16.7644C24.3963 18.6358 22.8793 20.1529 21.0079 20.1529C19.1365 20.1529 17.6194 18.6358 17.6194 16.7644C17.6194 14.893 19.1365 13.3759 21.0079 13.3759Z" stroke="white" stroke-width="1.4185"/>
<path d="M15.9478 25.6422L15.6155 26.7818C15.3468 27.703 16.0376 28.6241 16.9972 28.6241H25.0188C25.9783 28.6241 26.6691 27.703 26.4005 26.7818L26.0681 25.6422C25.4122 23.3933 23.3506 21.8471 21.008 21.8471C18.6653 21.8471 16.6038 23.3933 15.9478 25.6422Z" stroke="white" stroke-width="1.4185"/>
</svg>
