<svg width="190" height="74" viewBox="0 0 190 74" fill="none" xmlns="http://www.w3.org/2000/svg">
<path d="M14.91 36.0924H16.8727C23.5838 36.0924 27.7941 38.2601 27.7941 45.7192C27.7941 51.5527 25.4832 55.6966 18.4239 55.6966C17.1576 55.6966 16.1763 55.6966 14.8784 55.4416V36.0924H14.91ZM14.91 17.6039C16.2712 17.4127 17.5691 17.3489 18.8987 17.3489C23.7104 17.3489 26.4329 19.2615 26.4329 24.4255C26.4329 30.8647 22.7291 32.6816 16.8727 32.6816H14.91V17.6039ZM5.15995 17.7633C5.47651 18.5921 5.60313 20.3772 5.60313 23.1505V52.8915C5.60313 54.9316 5.34988 56.0792 4.27358 56.6529L2.18427 57.8643V59.3625C4.62179 59.2987 7.31256 59.1712 10.0983 59.1712C13.2639 59.1712 16.4295 59.2987 19.3735 59.3625C30.105 59.6494 37.6708 53.3378 37.6708 45.2092C37.6708 37.5269 32.859 34.4986 24.4385 34.1798V34.0523C30.4848 32.0122 36.1513 29.749 36.1513 22.9911C36.1513 15.5001 29.7251 13.9381 23.6471 14.0018C18.5821 14.0656 4.36854 14.0656 0 14.0018V16.4564C0.0316561 16.4564 4.52682 15.9463 5.15995 17.7633ZM49.067 41.7027C46.2179 42.3084 43.2739 43.0734 40.8364 44.7629C38.5888 46.293 37.7974 49.2257 37.7974 51.7758C37.7974 56.4617 40.2349 59.9681 45.1416 59.8725C52.3909 59.745 54.8917 54.2941 54.8917 54.2941V58.9481C57.2026 58.8843 59.0387 58.7568 60.8747 58.7568C62.7741 58.7568 64.5468 58.8843 66.6361 58.9481V56.4617L66.003 56.3023C63.8504 56.111 63.0273 55.2185 62.964 53.5609C62.9007 50.8514 62.7424 48.0781 62.7424 45.3686C62.7424 42.6272 62.9007 39.9177 62.964 37.1763C63.1223 30.0996 57.8674 27.5813 52.0743 27.5176C45.8381 27.422 40.963 31.9166 40.963 31.9166V36.5068L42.9257 36.9531L44.002 34.3711C44.5085 32.7454 46.946 32.7135 48.0856 32.7135C53.024 32.7135 54.955 35.8693 54.955 40.5233L49.067 41.7027ZM54.8601 51.1383C54.0686 52.3815 51.3779 54.0709 49.3835 54.1028C42.9574 54.1984 42.5142 46.4205 51.8844 44.0616L54.8601 43.2966V51.1383ZM89.4602 37.1444L89.9983 29.0795C87.6241 27.9001 84.7434 27.5495 81.7678 27.5495C74.0753 27.5495 68.2189 30.3227 68.2189 37.9094C68.2189 42.0853 70.5931 44.9223 75.1833 46.038L80.8497 47.4406C83.2872 48.0143 84.9967 48.8113 84.9967 51.7439C84.9967 54.9635 82.3059 56.7486 79.3302 56.7486C76.2279 56.7486 72.1126 56.0154 71.5428 53.274L70.7831 48.6838H68.2189V58.0236C71.6378 59.2668 75.0566 59.8725 78.5072 59.8725C85.2816 59.8725 92.3409 56.3023 92.3409 48.5881C92.3409 43.1372 89.3336 41.0652 83.9837 39.8858L78.5705 38.7063C76.0696 38.1644 74.9617 37.1125 74.9617 34.9767C74.9617 32.1078 77.2726 30.6734 81.103 30.6734C83.1923 30.6734 86.2313 31.8528 86.4845 33.2554L87.1493 37.1125H89.4602V37.1444ZM147.454 43.4241L147.486 39.1526C147.486 31.3747 141.978 27.4857 134.665 27.4857C132.671 27.4857 119.407 28.4739 119.913 44.5398C120.198 54.039 125.263 59.8725 134.855 59.8725C138.749 59.8725 141.44 59.1075 145.397 57.0036L146.853 53.8478L146.061 52.8277C143.972 54.1028 141.155 55.1547 138.97 55.1547C132.101 55.1547 128.492 50.3732 128.492 43.9341C128.492 43.9341 147.454 43.6472 147.454 43.4241ZM133.779 31.1834C138.654 31.1834 139.16 36.5068 139.16 40.4277C137.324 40.4914 129.917 40.4914 128.081 40.4277C128.081 34.1798 129.917 31.1834 133.779 31.1834ZM182.371 20.6322C182.371 22.8317 184.112 24.4574 186.201 24.4574C188.259 24.4574 190 22.7998 190 20.6322C190 18.4965 188.259 16.8389 186.201 16.8389C184.112 16.8389 182.371 18.4965 182.371 20.6322ZM183.067 20.6322C183.067 18.8152 184.397 17.4127 186.17 17.4127C187.942 17.4127 189.272 18.7834 189.272 20.6322C189.272 22.4811 187.942 23.9155 186.17 23.9155C184.397 23.9155 183.067 22.4811 183.067 20.6322ZM184.682 22.8636H185.378V20.951H186.106L187.309 22.8636H188.069L186.803 20.8872C187.436 20.8235 187.974 20.5047 187.974 19.6759C187.974 18.8152 187.468 18.4008 186.423 18.4008H184.713V22.8636H184.682ZM185.378 18.9746H186.296C186.771 18.9746 187.278 19.0702 187.278 19.6759C187.278 20.3772 186.739 20.441 186.138 20.441H185.41V18.9746H185.378ZM115.64 37.1444L116.178 29.0795C113.804 27.9001 110.923 27.5495 107.947 27.5495C100.255 27.5495 94.3669 30.3227 94.3669 37.9094C94.3669 42.0853 96.7411 44.9223 101.363 46.038L107.029 47.4406C109.467 48.0143 111.176 48.8113 111.176 51.7439C111.176 54.9635 108.486 56.7486 105.51 56.7486C102.408 56.7486 98.2922 56.0154 97.7224 53.274L96.9627 48.6838H94.3985L94.3669 58.0236C97.8174 59.2668 101.236 59.8725 104.655 59.8725C111.43 59.8725 118.489 56.3023 118.489 48.5881C118.489 43.1372 115.45 41.0652 110.132 39.8858L104.75 38.7063C102.218 38.1644 101.11 37.1125 101.11 34.9767C101.11 32.1078 103.421 30.6734 107.219 30.6734C109.34 30.6734 112.379 31.8528 112.632 33.2554L113.297 37.1125H115.64V37.1444ZM152.867 51.5527C152.867 57.5136 155.305 60 161.32 60C163.441 60 164.897 59.3943 165.34 58.7887L168.537 54.8997L167.999 53.5928C167.081 54.0709 166.385 54.4534 164.96 54.4534C162.016 54.4534 160.876 53.529 160.876 50.182V34.4667L167.872 34.4348L167.967 30.2271H160.876V26.5932C160.876 23.533 160.718 17.8271 160.781 17.572L159.863 16.9026C157.869 17.8271 152.899 20.2497 152.899 20.2497C152.899 20.2178 152.994 30.2909 152.994 30.2909L148.625 33.1598V34.6261L152.836 34.4348V51.5527H152.867ZM169.803 51.5527C169.803 57.5136 172.209 60 178.224 60C180.345 60 181.738 59.3943 182.244 58.7887L185.473 54.8997L184.967 53.5928C184.049 54.0709 183.321 54.4534 181.928 54.4534C178.92 54.4534 177.812 53.529 177.812 50.182V34.4667L184.808 34.4348L184.903 30.2271H177.812V26.5932C177.812 23.533 177.654 17.8271 177.717 17.572L176.768 16.9026C174.805 17.8271 169.803 20.2497 169.803 20.2497C169.803 20.2178 169.898 30.2271 169.898 30.2271H165.53V34.4348H169.772V51.5527H169.803Z" fill="#CDCDCD"/>
</svg>
