<svg width="190" height="74" viewBox="0 0 190 74" fill="none" xmlns="http://www.w3.org/2000/svg">
<path d="M21.4478 48.4219C21.4478 47.1544 20.6832 46.3648 19.5551 46.3648C18.4251 46.3648 17.6624 47.1544 17.6624 48.4219C17.6624 49.6966 18.4251 50.5108 19.5551 50.5108C20.6832 50.5108 21.4478 49.6966 21.4478 48.4219ZM17.1992 48.4219C17.1992 46.974 18.1795 46.0746 19.5551 46.0746C20.9287 46.0746 21.911 46.974 21.911 48.4219C21.911 49.8756 20.9287 50.801 19.5551 50.801C18.1795 50.801 17.1992 49.8756 17.1992 48.4219Z" fill="#CDCDCD"/>
<path d="M28.166 46.1569H31.8496V46.4311H28.6072V48.2501H31.3405V48.5244H28.6072V50.7187H28.166V46.1569Z" fill="#CDCDCD"/>
<path d="M38.2166 46.1569H41.9001V46.4311H38.6578V48.2501H41.389V48.5244H38.6578V50.7187H38.2166V46.1569Z" fill="#CDCDCD"/>
<path d="M47.8618 50.4444H49.483V46.4311H47.8618V46.1569H51.5494V46.4311H49.9242V50.4444H51.5494V50.7187H47.8618V50.4444Z" fill="#CDCDCD"/>
<path d="M57.5669 48.4277C57.5669 46.9826 58.661 46.0746 60.2762 46.0746C61.0129 46.0746 61.5779 46.3373 61.9173 46.6188L61.6518 46.8282C61.3124 46.5495 60.8532 46.3648 60.2762 46.3648C58.8906 46.3648 58.0301 47.1602 58.0301 48.4233C58.0301 49.6923 58.8906 50.5108 60.2482 50.5108C60.8931 50.5108 61.3743 50.3203 61.8315 49.9521L62.095 50.1485C61.6139 50.5541 61.0389 50.8024 60.2143 50.8024C58.663 50.8024 57.5669 49.8785 57.5669 48.4277Z" fill="#CDCDCD"/>
<path d="M68.1487 46.1569H71.8822V46.4311H68.5899V48.1592H71.3611V48.4334H68.5899V50.4444H71.978V50.7187H68.1487V46.1569Z" fill="#CDCDCD"/>
<path d="M88.4653 46.1569H92.1489V46.4311H88.9066V48.2501H91.6378V48.5244H88.9066V50.7187H88.4653V46.1569Z" fill="#CDCDCD"/>
<path d="M97.9268 49.0123V46.1569H98.372V48.9748C98.372 50.147 99.1107 50.5108 99.9552 50.5108C100.816 50.5108 101.558 50.147 101.558 48.9748V46.1569H101.978V49.0123C101.978 50.3939 101.013 50.8024 99.9552 50.8024C98.8951 50.8024 97.9268 50.3939 97.9268 49.0123Z" fill="#CDCDCD"/>
<path d="M110.377 48.4378L112.252 50.7187H111.739L109.956 48.5302L110.377 48.4378ZM109.94 48.3555C111.056 48.3555 111.675 48.035 111.675 47.3623C111.675 46.6766 111.056 46.4268 109.94 46.4268H108.696V48.3555H109.94ZM108.253 46.1569H110.054C111.308 46.1569 112.132 46.4889 112.132 47.3623C112.132 48.1938 111.308 48.624 110.054 48.624H108.696V50.7187H108.253V46.1569Z" fill="#CDCDCD"/>
<path d="M118.064 46.1569H118.531L120.991 49.3819L121.661 50.2827H121.681C121.667 49.8439 121.624 49.4021 121.624 48.9604V46.1569H122.043V50.7187H121.572L119.116 47.4936L118.443 46.5928H118.423C118.439 47.036 118.479 47.4503 118.479 47.8906V50.7187H118.064V46.1569Z" fill="#CDCDCD"/>
<path d="M128.258 50.4444H129.883V46.4311H128.258V46.1569H131.946V46.4311H130.322V50.4444H131.946V50.7187H128.258V50.4444Z" fill="#CDCDCD"/>
<path d="M139.932 46.4311H137.734V46.1569H142.567V46.4311H140.373V50.7187H139.932V46.4311Z" fill="#CDCDCD"/>
<path d="M148.177 49.0123V46.1569H148.621V48.9748C148.621 50.147 149.359 50.5108 150.206 50.5108C151.064 50.5108 151.807 50.147 151.807 48.9748V46.1569H152.228V49.0123C152.228 50.3939 151.262 50.8024 150.206 50.8024C149.144 50.8024 148.177 50.3939 148.177 49.0123Z" fill="#CDCDCD"/>
<path d="M160.628 48.4378L162.499 50.7187H161.987L160.205 48.5302L160.628 48.4378ZM160.189 48.3555C161.305 48.3555 161.926 48.035 161.926 47.3623C161.926 46.6766 161.305 46.4268 160.189 46.4268H158.947V48.3555H160.189ZM158.501 46.1569H160.304C161.556 46.1569 162.381 46.4889 162.381 47.3623C162.381 48.1938 161.556 48.624 160.304 48.624H158.947V50.7187H158.501V46.1569Z" fill="#CDCDCD"/>
<path d="M168.646 46.1569H172.379V46.4311H169.087V48.1592H171.858V48.4334H169.087V50.4444H172.475V50.7187H168.646V46.1569Z" fill="#CDCDCD"/>
<path d="M24.7361 28.7988C24.207 27.3884 23.4124 26.2927 22.3562 25.5089C21.2981 24.725 19.8825 24.3395 18.1116 24.3554C16.7081 24.3554 15.578 24.5445 14.7235 24.9256C13.869 25.3067 13.2141 25.8034 12.7549 26.4154C12.2977 27.0261 11.9963 27.7234 11.8545 28.5072C11.7127 29.2911 11.6409 30.0866 11.6409 30.8906V32.7673C11.6409 34.0767 11.7627 35.1767 12.0082 36.0689C12.2518 36.961 12.6331 37.68 13.1522 38.2256C13.6713 38.7728 14.3422 39.164 15.1667 39.4022C15.9913 39.6389 16.9736 39.7573 18.1116 39.7573C19.048 39.7573 19.7907 39.6389 20.3417 39.4022C20.8908 39.164 21.3121 38.8406 21.6075 38.4306C21.903 38.0207 22.0907 37.5356 22.1726 36.974C22.2544 36.4139 22.2943 35.8033 22.2943 35.1406V34.3221H19.1498V34.019H28.5834V34.3221H26.5989V39.2607H26.0498C26.0079 39.0889 25.8921 38.9633 25.6984 38.8839C25.5048 38.8045 25.2851 38.7656 25.0436 38.7656C24.5544 38.7656 24.0912 38.8334 23.652 38.9706C23.2147 39.1077 22.7416 39.2549 22.2345 39.4123C21.7253 39.5711 21.1404 39.7183 20.4795 39.8555C19.8167 39.9912 19.018 40.059 18.0817 40.059C16.5963 40.059 15.1608 39.8555 13.7772 39.4441C12.3936 39.0341 11.1777 38.474 10.1295 37.7622C9.08133 37.0505 8.24278 36.2118 7.61188 35.2489C6.98098 34.286 6.66553 33.2423 6.66553 32.1206C6.66553 30.8993 7.01692 29.7906 7.7177 28.7988C8.42048 27.8071 9.32091 26.9582 10.419 26.2538C11.5191 25.5478 12.743 25.005 14.0986 24.6239C15.4502 24.2428 16.7799 24.0522 18.0817 24.0522C18.6926 24.0522 19.2816 24.0956 19.8526 24.1822C20.4216 24.2688 20.9507 24.3583 21.4398 24.4521C21.929 24.5445 22.3662 24.6355 22.7535 24.7206C23.1389 24.8073 23.4643 24.8506 23.7298 24.8506C24.0154 24.8506 24.217 24.8188 24.3408 24.7538C24.4626 24.6889 24.5744 24.5705 24.6762 24.3973H25.1953V28.7988H24.7361Z" fill="#CDCDCD"/>
<path d="M92.2326 31.3656C93.149 31.3656 93.8698 31.279 94.3988 31.1072C94.9279 30.9339 95.3252 30.7001 95.5908 30.4056C95.8543 30.1111 96.022 29.7762 96.0939 29.4023C96.1658 29.0284 96.2017 28.6473 96.2017 28.2589C96.2017 27.6266 96.1398 27.0838 96.018 26.6305C95.8942 26.1772 95.6926 25.8033 95.4071 25.5088C95.1216 25.2143 94.7303 24.9949 94.2311 24.8506C93.734 24.7062 93.0971 24.6355 92.3244 24.6355C92.0988 24.6355 91.8772 24.6427 91.6516 24.6571C91.428 24.6715 91.2044 24.686 90.9808 24.7004V31.3656H92.2326ZM83.7454 24.7004V24.3973H88.3553C89.2099 24.3973 90.0544 24.3872 90.8889 24.3655C91.7235 24.3438 92.568 24.3337 93.4225 24.3337C94.2171 24.3337 95.0557 24.39 95.9422 24.5055C96.8266 24.621 97.6352 24.8188 98.3699 25.0989C99.1007 25.3789 99.7056 25.7571 100.185 26.2306C100.662 26.7056 100.902 27.3033 100.902 28.0222C100.902 28.5982 100.72 29.0904 100.352 29.5004C99.9871 29.909 99.5119 30.2439 98.9329 30.5023C98.354 30.7622 97.7071 30.9599 96.9943 31.0956C96.2816 31.2328 95.5808 31.3223 94.888 31.3656V31.4739C95.8843 31.6023 96.7767 31.7323 97.5593 31.8622C98.342 31.9907 99.0188 32.1856 99.5898 32.444C100.159 32.7038 100.612 33.0633 100.947 33.5223C101.283 33.9843 101.492 34.6022 101.574 35.3788C101.676 36.284 101.756 37.0101 101.818 37.5572C101.878 38.1044 101.966 38.5274 102.077 38.8291C102.189 39.1322 102.341 39.3343 102.535 39.4339C102.728 39.535 103.008 39.5841 103.375 39.5841C103.783 39.5841 104.118 39.5032 104.381 39.3358C104.645 39.1712 104.881 39.0167 105.084 38.8738L105.39 39.0673C105.186 39.2116 104.986 39.3444 104.795 39.4671C104.601 39.5884 104.377 39.6924 104.124 39.779C103.868 39.8656 103.559 39.9334 103.192 39.984C102.826 40.0345 102.367 40.059 101.818 40.059C100.698 40.059 99.8234 39.9334 99.1925 39.6822C98.5616 39.4311 98.0944 39.1178 97.7889 38.7439C97.4835 38.37 97.2938 37.9643 97.2239 37.524C97.152 37.0866 97.1061 36.6723 97.0862 36.284C97.0442 35.695 96.9903 35.1233 96.9185 34.569C96.8466 34.0161 96.6789 33.5223 96.4153 33.0921C96.1498 32.6605 95.7525 32.3155 95.2254 32.0556C94.6943 31.7972 93.9516 31.6673 92.9953 31.6673H90.9808V39.4556H93.7899V39.7573H83.7454V39.4556H86.5545V24.7004H83.7454Z" fill="#CDCDCD"/>
<path d="M129.811 39.5205C131.133 39.5205 132.263 39.4094 133.199 39.1856C134.136 38.9633 134.924 38.6601 135.565 38.279C136.206 37.8994 136.715 37.4634 137.093 36.974C137.468 36.4861 137.754 35.9707 137.947 35.4322C138.141 34.8923 138.267 34.3538 138.329 33.8139C138.388 33.274 138.42 32.7673 138.42 32.2938C138.42 31.1274 138.319 30.075 138.115 29.1323C137.911 28.1911 137.508 27.3855 136.909 26.7171C136.308 26.0487 135.464 25.5334 134.375 25.1739C133.285 24.8144 131.858 24.6354 130.085 24.6354C129.678 24.6354 129.312 24.6383 128.987 24.6455C128.661 24.6528 128.396 24.6715 128.192 24.699V39.4556C128.783 39.4989 129.322 39.5205 129.811 39.5205ZM120.959 24.699V24.3972H123.766C124.804 24.3972 125.842 24.3871 126.88 24.3655C127.919 24.3438 128.955 24.3323 129.995 24.3323C130.909 24.3323 131.876 24.3756 132.894 24.4622C133.912 24.5488 134.918 24.7033 135.917 24.9256C136.913 25.1494 137.859 25.4482 138.756 25.8206C139.652 26.196 140.445 26.6709 141.136 27.2455C141.828 27.8215 142.377 28.5043 142.785 29.294C143.192 30.0865 143.396 31.0133 143.396 32.0773C143.396 33.1282 143.192 34.0478 142.785 34.8389C142.377 35.63 141.834 36.3128 141.152 36.8888C140.471 37.4634 139.69 37.9383 138.816 38.3122C137.941 38.6861 137.031 38.985 136.084 39.2073C135.138 39.431 134.202 39.5855 133.275 39.6707C132.351 39.7573 131.49 39.8006 130.696 39.8006C129.536 39.8006 128.38 39.7934 127.232 39.7789C126.082 39.7645 124.926 39.7573 123.766 39.7573H120.959V39.4556H123.766V24.699H120.959Z" fill="#CDCDCD"/>
<path d="M65.583 39.4556L55.9657 23.7938H55.1432L46.045 39.4556H43.4814V39.7573H49.2494V39.4556H46.5321L46.5581 39.4123H46.4722L53.486 27.4967L53.494 27.4823L53.51 27.4548L56.5447 32.4699L57.0958 33.3722H57.0898L59.274 36.9798L60.7893 39.4556H57.9503V39.7573H68.2064V39.4556H65.583Z" fill="#CDCDCD"/>
<path d="M181.396 39.4556L171.78 23.7938H170.956L161.858 39.4556H159.294V39.7573H165.064V39.4556H162.347L162.371 39.4123H162.285L169.299 27.4967L169.307 27.4823L169.323 27.4548L172.357 32.4699L172.909 33.3722H172.905L175.087 36.9798L176.602 39.4556H173.763V39.7573H184.021V39.4556H181.396Z" fill="#CDCDCD"/>
</svg>
