<svg width="189" height="74" viewBox="0 0 189 74" fill="none" xmlns="http://www.w3.org/2000/svg">
<g clip-path="url(#clip0_66_514)">
<path d="M22.404 35.6648H4.37717V27.2112H2V46.7351H4.37717V37.6776H22.404V46.7351H24.5831V27.2112H22.404V35.6648ZM81.239 27.2112L73.7113 42.7095L66.7779 27.2112H63.8064L56.873 42.7095L49.3453 27.2112H46.5719L56.0806 46.7351H57.6654L65.3912 30.0291L72.9189 46.7351H74.7018L84.0124 27.2112H81.239ZM98.4735 27.0099C95.6341 27.0166 92.7947 27.0166 89.9553 27.0099C86.8584 27.1642 84.2864 27.8083 83.4181 31.2367C83.1044 33.1824 83.1044 35.2052 83.0219 37.0738C83.1044 39.375 83.1044 42.7498 84.2105 44.7223C85.2142 46.1883 86.9739 46.6278 88.5686 46.7351C89.9817 46.98 91.3387 47.0102 92.7287 46.9364H97.0868C98.5924 47.0068 100.18 47.0068 101.841 46.9364C105.466 46.5674 107.259 45.2758 107.586 41.5019C107.863 39.7575 107.863 37.9963 107.784 36.2687C107.863 28.2511 106.477 27.0166 98.4735 27.0099ZM105.407 39.6904C105.381 42.5183 104.974 44.4271 101.841 44.7223C100.352 44.8968 98.764 44.9236 97.2849 44.9236H90.3515C85.6467 44.7492 85.5311 42.78 85.5972 38.4827V34.0546C85.7325 29.7171 86.832 29.2474 90.9458 29.2239L95.502 29.0227L100.058 29.2239C101.075 29.13 102.231 29.1602 103.228 29.4252C103.763 29.5997 104.311 29.9217 104.615 30.4316C105.381 31.5084 105.437 33.9741 105.407 35.6648C105.437 37.0838 105.407 38.4056 105.407 39.6904ZM132.744 33.0482C132.705 28.2209 130.509 27.2212 126.207 27.2112H110.557V46.7351H112.737V38.8853H126.009C128.806 38.8752 130.05 39.4354 129.971 42.5083V46.7351H132.348V41.5019C132.358 38.9054 130.829 38.3183 128.584 38.0802C132.041 37.5266 132.705 36.5001 132.744 33.0482ZM125.811 36.8725H112.737V29.2239H125.613C128.634 29.2206 130.281 29.5997 130.367 32.8469C130.281 36.2049 129.007 36.9094 125.811 36.8725ZM178.109 35.6648H160.082V27.2112H157.903V46.7351H160.082V37.6776H178.109V46.7351H180.486V27.2112H178.109V35.6648ZM134.131 29.2239H143.838V46.7351H146.215V29.2239H155.922V27.2112H134.131V29.2239ZM35.4785 27.2112L25.5736 46.7351H28.347L38.2519 27.2112H35.4785ZM38.648 27.2112L48.751 46.7351H51.5244L41.4214 27.2112H38.648ZM33.1013 46.7351H43.7986L38.4499 36.2687L33.1013 46.7351ZM185.861 28.922C185.861 28.4826 185.627 28.2176 184.933 28.2176H183.788V30.8778H184.111V29.6533H184.699L185.448 30.8778H185.831L185.039 29.6533C185.504 29.6399 185.861 29.4453 185.861 28.922ZM184.6 29.3917H184.111V28.449H184.861C185.184 28.449 185.518 28.4993 185.518 28.9153C185.514 29.4554 184.969 29.3917 184.6 29.3917Z" fill="#CDCDCD"/>
<path d="M184.659 27.1676C184.351 27.1672 184.045 27.2284 183.761 27.3479C183.476 27.4673 183.217 27.6427 182.998 27.8638C182.78 28.085 182.607 28.3477 182.488 28.6369C182.37 28.9261 182.309 29.2362 182.308 29.5494C182.308 29.8626 182.368 30.1729 182.486 30.4624C182.603 30.7519 182.776 31.0151 182.994 31.2369C183.211 31.4587 183.47 31.6348 183.754 31.755C184.039 31.8753 184.344 31.9374 184.653 31.9379C185.275 31.9388 185.873 31.6883 186.313 31.2417C186.754 30.795 187.002 30.1887 187.003 29.5561C187.004 28.9235 186.758 28.3165 186.318 27.8686C185.878 27.4206 185.282 27.1685 184.659 27.1676ZM184.659 31.6226C183.513 31.6226 182.678 30.7134 182.678 29.546C182.678 28.3887 183.513 27.4829 184.659 27.4829C185.798 27.4829 186.627 28.3887 186.627 29.546C186.627 30.7134 185.798 31.6226 184.659 31.6226Z" fill="#DDDDDD"/>
</g>
<defs>
<clipPath id="clip0_66_514">
<rect width="185" height="20" fill="white" transform="translate(2 27)"/>
</clipPath>
</defs>
</svg>
