<svg width="190" height="74" viewBox="0 0 190 74" fill="none" xmlns="http://www.w3.org/2000/svg">
<path fill-rule="evenodd" clip-rule="evenodd" d="M42.0431 27.0315H55.1021C55.1021 27.0315 54.7537 27.5579 54.7537 28.2155V44.3632C54.7537 45.2403 55.1452 45.9862 55.1452 45.9862H42C42 45.9862 42.3915 45.2395 42.3915 44.4937V28.3467C42.3915 27.7328 42.0431 27.0315 42.0431 27.0315ZM61.6036 27.0744H74.021C74.021 27.0744 73.6726 27.6361 73.6726 28.1557V33.9493L78.073 28.5447C78.073 28.5447 78.335 28.1557 78.335 27.7666V27.1611H90.9697L85.6107 34.3383C85.6107 34.3383 85.3494 34.6407 85.3494 34.8571C85.3494 35.0735 85.5675 35.3758 85.5675 35.3758L92.4517 45.8818H77.2445C77.2445 45.8818 77.5066 45.4935 77.5066 45.1037C77.5066 44.7154 77.2445 44.2389 77.2445 44.2389L73.6279 38.575V44.7154C73.6279 45.2342 74.0201 45.9248 74.0201 45.9248H61.6036C61.6036 45.9248 61.9519 45.4498 61.9519 44.9311V28.1549C61.9519 27.6369 61.6036 27.0744 61.6036 27.0744ZM96.1498 27.2057H118.362V32.9363C118.362 32.9363 117.882 32.512 117.275 32.512H108.171V34.082H116.098V39.1336C116.098 39.1336 115.575 38.7092 115.009 38.7092H108.084V40.4496H117.404C117.926 40.4496 118.232 39.6431 118.232 39.6431V45.9248H96.1498C96.1498 45.9248 96.5429 45.3731 96.5429 44.9909V28.6069C96.5437 27.927 96.1498 27.2057 96.1498 27.2057ZM128.189 27H145.949C145.949 27 145.601 27.7896 145.601 28.2286C145.601 28.6675 145.905 29.4571 145.905 29.4571L153 45.9555H139.681C139.681 45.9555 139.985 45.4728 139.81 45.0784C139.443 44.2022 139.081 43.3243 138.723 42.4448H133.238C133.238 42.4448 132.149 44.7707 132.149 45.2104C132.149 45.6478 132.499 46 132.499 46H121.529L128.406 28.755C128.406 28.755 128.669 28.4035 128.669 27.9653C128.669 27.5272 128.189 27 128.189 27ZM135.72 35.4249L134.413 38.8036H137.286L135.72 35.4249Z" fill="#CDCDCD"/>
</svg>
