<svg width="190" height="74" viewBox="0 0 190 74" fill="none" xmlns="http://www.w3.org/2000/svg">
<path fill-rule="evenodd" clip-rule="evenodd" d="M25.1524 16.2773L18.365 31.6258L25.9428 48.0696H16.8239L11.5358 33.4812H11.5776H11.4939V48.0696H3V16.2773H11.4939V29.8129H11.5358L16.1989 16.2773H25.1524ZM40.8911 34.5774C40.1415 34.1979 39.1836 33.777 38.6004 33.777C35.5601 33.777 35.1853 36.7286 35.1853 39.0472V48.0706H27.0243V25.8064H35.2271L34.7686 30.0652L34.8513 30.15C35.7674 27.4094 37.8497 25.2169 40.8901 25.3431V34.5774H40.8911ZM62.1264 36.9385C62.1264 43.1789 58.9206 48.535 51.883 48.535C44.8455 48.535 41.6397 43.1789 41.6397 36.9385C41.6397 30.6982 44.8455 25.342 51.883 25.342C58.9206 25.342 62.1264 30.6982 62.1264 36.9385ZM49.6342 36.9385C49.6342 39.2148 49.9252 42.336 51.882 42.336C53.8398 42.336 54.1298 39.2158 54.1298 36.9385C54.1298 34.6612 53.8387 31.541 51.882 31.541C49.9263 31.541 49.6342 34.6612 49.6342 36.9385ZM71.4526 29.9391L71.5363 30.0228C72.3268 27.6193 74.451 25.342 77.1574 25.342C81.8624 25.342 83.0287 29.3899 83.0287 33.3953V48.0685H74.8677V36.8123C74.8677 34.9146 74.7421 33.566 73.3685 33.566C71.7866 33.566 71.6609 35.0842 71.6609 37.3605V48.0706H63.5V25.8064H71.6609L71.4526 29.9391ZM96.728 48.0696V36.8123C96.728 34.9146 96.6442 33.566 95.2277 33.566C93.6039 33.566 93.5212 35.2941 93.5212 37.3605V48.0706H85.3592V14.4644H93.5212L93.4793 26.5666C93.4793 27.7052 93.3547 28.8004 93.3128 29.9401L93.3966 30.0239C94.1881 27.6204 96.3113 25.3431 99.0187 25.3431C103.724 25.3431 104.889 29.3909 104.889 33.3964V48.0696H96.728ZM126.124 40.523C125.208 45.6671 121.335 48.535 116.421 48.535C109.635 48.535 106.263 43.8955 106.263 37.3605C106.263 30.994 109.884 25.3431 116.629 25.3431C120.002 25.3431 122.459 26.7765 124.04 28.969C126.164 31.8792 126.416 35.1669 126.416 38.6677H114.423C114.423 39.9739 114.63 42.0837 116.339 42.0837C117.253 42.0837 117.963 41.4083 118.129 40.523H126.124ZM118.213 34.1979C118.171 32.9755 117.714 31.3725 116.257 31.3725C114.883 31.3725 114.382 33.0582 114.425 34.1979H118.213ZM127.123 18.807C127.123 16.1925 129.247 14 131.828 14C134.452 14 136.658 16.0653 136.658 18.7645C136.658 21.4204 134.576 23.6563 131.912 23.6563C130.642 23.6563 129.424 23.1454 128.526 22.236C127.627 21.3265 127.123 20.0931 127.123 18.807ZM127.789 48.0696V25.8064H135.95V48.0696H127.789ZM146.401 29.4333L146.485 29.5182C147.358 27.1984 149.274 25.3431 151.898 25.3431C154.855 25.3431 156.728 27.2822 157.644 29.9391H157.727C158.435 27.4508 160.226 25.3431 163.058 25.3431C167.347 25.3431 168.929 28.4209 168.929 33.3126V48.0696H160.766V36.0108C160.766 35.1256 160.641 33.354 159.435 33.354C158.394 33.354 158.061 33.9869 157.852 34.8298C157.644 35.6313 157.687 36.6003 157.687 37.317V48.0696H149.523V35.7574C149.523 34.746 149.317 33.4812 148.277 33.4812C147.277 33.4812 146.818 34.1565 146.61 34.9994C146.401 35.8423 146.444 36.8123 146.444 37.4866V48.0696H138.281V25.8064H146.526L146.401 29.4333ZM173.299 40.0587C174.258 41.1125 175.881 42.3784 177.38 42.3784C178.087 42.3784 178.963 42.0413 178.963 41.2397C178.963 40.4382 178.255 39.9749 176.838 39.4681C173.633 38.3306 171.093 36.6427 171.093 32.8483C171.093 28.2523 174.8 25.342 179.921 25.342C182.129 25.342 184.709 26.0587 186.625 27.155L183.834 33.1843C182.877 32.2991 181.796 31.2028 180.421 31.2028C179.836 31.2028 179.213 31.5824 179.213 32.2991C179.213 33.4377 180.796 34.0272 181.669 34.3654C184.626 35.5041 187 37.105 187 40.7319C187 45.7488 182.753 48.5329 178.213 48.5329C175.216 48.5329 172.884 47.6476 170.301 46.2131L173.299 40.0587ZM186.808 59.4222H65.0945V54.0173H186.808V59.4222ZM35.8511 58.7225C35.8511 59.2324 36.1034 59.1985 36.5243 59.3533C36.6583 59.4042 36.9106 59.4042 36.9106 59.5738C36.9106 59.7625 36.6416 59.7625 36.4908 59.7625C36.0542 59.7625 35.6334 59.6947 35.1957 59.6947C34.7257 59.6947 34.2713 59.7625 33.8002 59.7625C33.6661 59.7625 33.4808 59.7625 33.4808 59.5738C33.4808 59.507 33.5311 59.4042 33.7834 59.3533C34.4566 59.2165 34.7079 59.0638 34.7079 58.4002V54.7552C34.7079 54.1594 33.9007 54.4318 33.9007 54.0915C33.9007 53.8699 34.354 53.9208 34.7916 53.6314C35.6156 53.0854 35.6836 52.9497 35.7998 52.9497C35.8668 52.9497 35.9181 52.9666 35.9181 53.0684C35.9181 53.3578 35.8511 53.6473 35.8511 53.9367V58.7225ZM58.8379 55.7433C58.8044 55.8461 58.8044 56.0677 58.8044 56.3391C58.8044 57.7693 59.1907 59.1836 61.2427 59.1836C62.5378 59.1836 62.5713 58.5019 62.8393 58.5019C62.9241 58.5019 62.9911 58.5528 62.9911 58.6376C62.9911 58.7564 62.2855 60 60.5361 60C58.6861 60 57.6266 58.6716 57.6266 56.5427C57.6266 54.9418 58.6023 52.9497 60.6868 52.9497C62.6205 52.9497 63.277 54.6184 63.277 55.35C63.277 55.6574 63.2267 55.7422 62.9409 55.7422H58.8379V55.7433ZM9.99361 52.2987C9.99361 52.4068 9.96325 52.4535 9.8261 52.4535C9.73606 52.4535 9.67429 52.4068 9.65859 52.3612C9.18746 51.2205 9.62823 50.789 6.98049 50.789C6.14398 50.789 5.97647 50.913 5.97647 51.406V54.0099C5.97647 54.5177 6.05185 54.5792 7.07158 54.5792C7.36054 54.5792 7.61913 54.5177 7.9395 54.5029C9.0189 54.3799 8.59384 53.0854 9.10999 53.0854C9.20212 53.0854 9.2775 53.1151 9.2775 53.3472C9.2775 53.7787 9.24714 54.1943 9.24714 54.6258C9.24714 55.0425 9.2775 55.9511 9.2775 56.2278C9.2775 56.3974 9.21678 56.4748 9.14035 56.4748C8.94352 56.4748 8.89746 56.3052 8.7289 55.6267C8.62211 55.1962 8.50066 55.0107 6.93443 55.0107C6.1733 55.0107 5.97543 55.0573 5.97543 55.4274V58.3853C5.97543 59.031 6.14294 59.1243 7.08624 59.2632C7.3909 59.3098 7.71022 59.2801 7.71022 59.525C7.72592 59.6798 7.63484 59.7562 7.33018 59.7562C7.08728 59.7562 6.78367 59.6947 5.44358 59.6947C4.80494 59.6947 4.18096 59.7562 3.72449 59.7562C3.45123 59.7562 3.23766 59.7265 3.23766 59.5409C3.23766 59.3861 3.29943 59.3713 4.1663 59.2632C4.53168 59.2176 4.66883 59.0172 4.66883 58.0153V51.5131C4.66883 50.9586 4.59241 50.8971 4.21237 50.7879C3.66481 50.6342 3.32979 50.7731 3.32979 50.4964C3.32979 50.3278 3.4973 50.297 4.05951 50.297C4.71385 50.297 5.68751 50.3278 6.49366 50.3278C7.57411 50.3278 9.14139 50.2652 9.67429 50.2652C9.8261 50.2652 9.99361 50.3108 9.99361 50.419V52.2987ZM62.1682 54.3979C62.1682 53.818 61.6301 53.36 60.9245 53.36C59.7132 53.36 58.9908 54.5516 58.9908 55.0785C58.9908 55.1983 59.0243 55.2333 60.4533 55.2333C61.9316 55.2323 62.1682 55.0107 62.1682 54.3979ZM54.2973 58.5348C54.2973 59.0808 54.4994 59.3522 55.7431 59.3522C55.8279 59.3522 55.9619 59.3861 55.9619 59.5727C55.9619 59.7434 55.7609 59.7615 55.5756 59.7615C55.071 59.7615 54.5496 59.6936 54.046 59.6936C53.5246 59.6936 53.0033 59.7615 52.4819 59.7615C52.3646 59.7615 52.1113 59.7275 52.1113 59.5579C52.1113 59.472 52.1783 59.3692 52.2285 59.3533C52.8672 59.1985 53.154 59.1985 53.154 57.9581V55.3181C53.154 54.2452 52.4986 54.382 52.4986 54.0756C52.4986 53.9208 52.8682 53.836 53.1718 53.5646C53.6262 53.1553 53.8607 52.6783 54.0795 52.6783C54.2135 52.6783 54.2816 52.7641 54.2816 52.8818V53.3769C54.2816 53.6494 54.2816 53.819 54.4156 53.819C54.6177 53.819 55.2395 52.9518 56.0802 52.9518C56.4331 52.9518 57.0549 53.0875 57.0549 53.7183C57.0549 54.3311 56.5168 54.4848 56.1975 54.4848C55.8101 54.4848 55.4071 54.0936 55.0699 54.0936C54.5151 54.0936 54.2962 54.6545 54.2962 55.1665V58.5348H54.2973ZM44.4947 57.5827C44.4947 56.5437 44.5282 54.9598 44.5282 53.9547C44.5282 53.7162 44.2435 53.6823 44.0414 53.6314C43.6383 53.5296 43.5368 53.4946 43.5368 53.3759C43.5368 53.2221 43.7221 53.2221 43.9566 53.2221C44.1922 53.2221 44.4277 53.2561 44.68 53.2561C44.9156 53.2561 45.1679 53.2221 45.4202 53.2221C45.639 53.2221 45.6725 53.307 45.6725 53.5466C45.6725 55.0616 45.639 56.5766 45.639 58.0927C45.639 58.7903 46.1437 59.1826 46.9676 59.1826C48.8343 59.1826 48.9683 58.3811 48.9851 57.6835C48.9851 56.4738 49.0186 55.2482 49.0186 54.0395C49.0186 53.8349 48.9348 53.8349 48.1444 53.6303C48.0104 53.5964 47.6565 53.4935 47.6565 53.3578C47.6565 53.255 47.8418 53.2211 48.0271 53.2211C48.3129 53.2211 48.5988 53.255 48.8846 53.255C49.2206 53.255 49.54 53.2211 49.876 53.2211C49.9943 53.2211 50.2289 53.272 50.2289 53.5784C50.2289 55.2991 50.1618 57.0187 50.1618 58.7384C50.1618 59.0957 50.4477 59.1476 50.5995 59.1476C51.2549 59.1476 51.4737 59.1476 51.4737 59.3172C51.4737 59.4529 51.3899 59.4879 51.1376 59.5208C49.9598 59.7095 49.2709 59.8611 49.1201 59.8611C48.9851 59.8611 48.9851 59.7424 48.9851 59.5886V59.1964C48.9851 59.0607 48.9516 58.9928 48.8678 58.9928C48.5988 58.9928 47.8753 59.9979 46.5132 59.9979C44.9313 60 44.4947 59.0289 44.4947 57.5827ZM40.6943 54.0067C40.2232 54.0067 40.1729 54.1424 40.1729 54.6873C40.1729 55.6076 40.1227 57.0208 40.1227 57.975C40.1227 58.6726 40.3917 59.0819 41.2827 59.0819C41.9883 59.0819 41.9883 58.8942 42.3255 58.8942C42.4427 58.8942 42.5108 58.9451 42.5108 59.0638C42.5108 59.2335 42.0229 59.8304 40.7959 59.8304C39.5343 59.8304 38.9459 59.3543 38.9459 58.0768C38.9459 56.9021 38.9794 55.7274 38.9794 54.399C38.9794 54.1594 38.8956 54.1095 38.6098 54.1095H38.2392C38.189 54.1095 38.1052 54.0767 38.1052 53.9738C38.1052 53.7013 38.9124 53.5646 39.3322 53.0875C39.9709 52.3719 39.8369 52.0835 40.0892 52.0835C40.2902 52.0835 40.2902 52.2202 40.2902 52.4068V53.0377C40.2902 53.1914 40.3237 53.2592 40.5592 53.2592H42.3747C42.5432 53.2592 42.6772 53.2932 42.6772 53.6346C42.6772 53.8551 42.6605 54.0099 42.3914 54.0099H40.6943V54.0067ZM36.0029 49.9355C36.0029 50.3108 35.6501 50.6681 35.2795 50.6681C34.9089 50.6681 34.5571 50.3098 34.5571 49.9355C34.5571 49.5613 34.9099 49.205 35.2795 49.205C35.6501 49.205 36.0029 49.5613 36.0029 49.9355ZM25.9805 55.1464C25.9805 54.1933 25.2571 54.5336 25.2571 54.1933C25.2571 54.0236 25.5094 54.0067 25.9135 53.6324C26.2998 53.2741 26.8212 52.7291 26.9887 52.7291C27.0735 52.7291 27.1573 52.797 27.1573 52.9507V53.836C27.8462 53.326 28.3843 52.9507 29.293 52.9507C31.5461 52.9507 31.5628 54.6523 31.5628 55.4199V58.6037C31.5628 58.9949 31.5806 59.2854 32.034 59.3533C32.2695 59.3872 32.6223 59.4042 32.6223 59.5738C32.6223 59.7445 32.5051 59.7625 32.2695 59.7625C31.7816 59.7625 31.277 59.6947 30.9242 59.6947C30.4363 59.6947 30.0667 59.7625 29.6972 59.7625C29.4951 59.7625 29.3611 59.7445 29.3611 59.5918C29.3611 59.4222 29.5129 59.3702 29.5967 59.3533C30.0678 59.2504 30.4206 59.2335 30.4206 58.3312V55.5047C30.4206 54.823 30.3368 53.6664 29.0083 53.6664C27.9655 53.6664 27.1761 54.2792 27.1583 54.4657C27.1248 54.8919 27.1248 55.2832 27.1248 55.6924V58.3312C27.1248 58.9271 27.1416 59.2335 27.8818 59.3533C28.1006 59.3872 28.3864 59.3872 28.3864 59.5738C28.3864 59.7445 28.1843 59.7625 28.0158 59.7625C28.0158 59.7625 28.0325 59.7625 28.0158 59.7625C27.8472 59.7625 27.2086 59.6947 26.8055 59.6947C26.3009 59.6947 25.9648 59.7625 25.6277 59.7625C25.5104 59.7625 25.0895 59.7625 25.0895 59.5738C25.0895 59.4381 25.2414 59.3702 25.3419 59.3533C25.7962 59.2674 25.9805 58.9101 25.9805 58.0938V55.1464ZM21.6084 58.5348C21.6084 59.0808 21.8105 59.3522 23.0543 59.3522C23.138 59.3522 23.272 59.3861 23.272 59.5727C23.272 59.7434 23.071 59.7615 22.8857 59.7615C22.3811 59.7615 21.8597 59.6936 21.3561 59.6936C20.8348 59.6936 20.3134 59.7615 19.792 59.7615C19.6747 59.7615 19.4224 59.7275 19.4224 59.5579C19.4224 59.472 19.4894 59.3692 19.5397 59.3533C20.1794 59.1985 20.4652 59.1985 20.4652 57.9581V55.3181C20.4652 54.2452 19.8098 54.382 19.8098 54.0756C19.8098 53.9208 20.1804 53.836 20.483 53.5646C20.9374 53.1553 21.1729 52.6783 21.3907 52.6783C21.5247 52.6783 21.5927 52.7641 21.5927 52.8818V53.3769C21.5927 53.6494 21.5927 53.819 21.7268 53.819C21.9288 53.819 22.5507 52.9518 23.3914 52.9518C23.7442 52.9518 24.3672 53.0875 24.3672 53.7183C24.3672 54.3311 23.829 54.4848 23.5097 54.4848C23.1234 54.4848 22.7193 54.0936 22.3832 54.0936C21.8283 54.0936 21.6095 54.6545 21.6095 55.1665V58.5348H21.6084ZM11.8059 57.5827C11.8059 56.5437 11.8394 54.9598 11.8394 53.9547C11.8394 53.7162 11.5536 53.6823 11.3515 53.6314C10.9484 53.5296 10.8469 53.4946 10.8469 53.3759C10.8469 53.2221 11.0322 53.2221 11.2667 53.2221C11.5023 53.2221 11.7378 53.2561 11.9901 53.2561C12.2257 53.2561 12.478 53.2221 12.7293 53.2221C12.9481 53.2221 12.9816 53.307 12.9816 53.5466C12.9816 55.0616 12.9481 56.5766 12.9481 58.0927C12.9481 58.7903 13.4527 59.1826 14.2767 59.1826C16.1434 59.1826 16.2784 58.3811 16.2941 57.6835C16.2941 56.4738 16.3276 55.2482 16.3276 54.0395C16.3276 53.8349 16.2439 53.8349 15.4534 53.6303C15.3194 53.5964 14.9666 53.4935 14.9666 53.3578C14.9666 53.255 15.1519 53.2211 15.3362 53.2211C15.622 53.2211 15.9078 53.255 16.1936 53.255C16.5297 53.255 16.849 53.2211 17.1861 53.2211C17.3034 53.2211 17.539 53.272 17.539 53.5784C17.539 55.2991 17.472 57.0187 17.472 58.7384C17.472 59.0957 17.7567 59.1476 17.9085 59.1476C18.5639 59.1476 18.7827 59.1476 18.7827 59.3172C18.7827 59.4529 18.6979 59.4879 18.4467 59.5208C17.2688 59.7095 16.58 59.8611 16.4292 59.8611C16.2941 59.8611 16.2941 59.7424 16.2941 59.5886V59.1964C16.2941 59.0607 16.2606 58.9928 16.1769 58.9928C15.9078 58.9928 15.1844 59.9979 13.8223 59.9979C12.2425 60 11.8059 59.0289 11.8059 57.5827Z" fill="#CDCDCD"/>
</svg>
