<svg width="184" height="46" viewBox="0 0 184 46" fill="none" xmlns="http://www.w3.org/2000/svg">
<path fill-rule="evenodd" clip-rule="evenodd" d="M22.1524 2.27731L15.365 17.6258L22.9428 34.0696H13.8239L8.53576 19.4812H8.57764H8.49389V34.0696H0V2.27731H8.49389V15.8129H8.53576L13.1989 2.27731H22.1524ZM37.8911 20.5774C37.1415 20.1979 36.1836 19.777 35.6004 19.777C32.5601 19.777 32.1853 22.7286 32.1853 25.0472V34.0706H24.0243V11.8064H32.2271L31.7686 16.0652L31.8513 16.15C32.7674 13.4094 34.8497 11.2169 37.8901 11.3431V20.5774H37.8911ZM59.1264 22.9385C59.1264 29.1789 55.9206 34.535 48.883 34.535C41.8455 34.535 38.6397 29.1789 38.6397 22.9385C38.6397 16.6982 41.8455 11.342 48.883 11.342C55.9206 11.342 59.1264 16.6982 59.1264 22.9385ZM46.6342 22.9385C46.6342 25.2148 46.9252 28.336 48.882 28.336C50.8398 28.336 51.1298 25.2158 51.1298 22.9385C51.1298 20.6612 50.8387 17.541 48.882 17.541C46.9263 17.541 46.6342 20.6612 46.6342 22.9385ZM68.4526 15.9391L68.5363 16.0228C69.3268 13.6193 71.451 11.342 74.1574 11.342C78.8624 11.342 80.0287 15.3899 80.0287 19.3953V34.0685H71.8677V22.8123C71.8677 20.9146 71.7421 19.566 70.3685 19.566C68.7866 19.566 68.6609 21.0842 68.6609 23.3605V34.0706H60.5V11.8064H68.6609L68.4526 15.9391ZM93.728 34.0696V22.8123C93.728 20.9146 93.6442 19.566 92.2277 19.566C90.6039 19.566 90.5212 21.2941 90.5212 23.3605V34.0706H82.3592V0.464372H90.5212L90.4793 12.5666C90.4793 13.7052 90.3547 14.8004 90.3128 15.9401L90.3966 16.0239C91.1881 13.6204 93.3113 11.3431 96.0187 11.3431C100.724 11.3431 101.889 15.3909 101.889 19.3964V34.0696H93.728ZM123.124 26.523C122.208 31.6671 118.335 34.535 113.421 34.535C106.635 34.535 103.263 29.8955 103.263 23.3605C103.263 16.994 106.884 11.3431 113.629 11.3431C117.002 11.3431 119.459 12.7765 121.04 14.969C123.164 17.8792 123.416 21.1669 123.416 24.6677H111.423C111.423 25.9739 111.63 28.0837 113.339 28.0837C114.253 28.0837 114.963 27.4083 115.129 26.523H123.124ZM115.213 20.1979C115.171 18.9755 114.714 17.3725 113.257 17.3725C111.883 17.3725 111.382 19.0582 111.425 20.1979H115.213ZM124.123 4.80696C124.123 2.1925 126.247 0 128.828 0C131.452 0 133.658 2.06527 133.658 4.76455C133.658 7.42035 131.576 9.65631 128.912 9.65631C127.642 9.65631 126.424 9.1454 125.526 8.23597C124.627 7.32654 124.123 6.09309 124.123 4.80696ZM124.789 34.0696V11.8064H132.95V34.0696H124.789ZM143.401 15.4333L143.485 15.5182C144.358 13.1984 146.274 11.3431 148.898 11.3431C151.855 11.3431 153.728 13.2822 154.644 15.9391H154.727C155.435 13.4508 157.226 11.3431 160.058 11.3431C164.347 11.3431 165.929 14.4209 165.929 19.3126V34.0696H157.766V22.0108C157.766 21.1256 157.641 19.354 156.435 19.354C155.394 19.354 155.061 19.9869 154.852 20.8298C154.644 21.6313 154.687 22.6003 154.687 23.317V34.0696H146.523V21.7574C146.523 20.746 146.317 19.4812 145.277 19.4812C144.277 19.4812 143.818 20.1565 143.61 20.9994C143.401 21.8423 143.444 22.8123 143.444 23.4866V34.0696H135.281V11.8064H143.526L143.401 15.4333ZM170.299 26.0587C171.258 27.1125 172.881 28.3784 174.38 28.3784C175.087 28.3784 175.963 28.0413 175.963 27.2397C175.963 26.4382 175.255 25.9749 173.838 25.4681C170.633 24.3306 168.093 22.6427 168.093 18.8483C168.093 14.2523 171.8 11.342 176.921 11.342C179.129 11.342 181.709 12.0587 183.625 13.155L180.834 19.1843C179.877 18.2991 178.796 17.2028 177.421 17.2028C176.836 17.2028 176.213 17.5824 176.213 18.2991C176.213 19.4377 177.796 20.0272 178.669 20.3654C181.626 21.5041 184 23.105 184 26.7319C184 31.7488 179.753 34.5329 175.213 34.5329C172.216 34.5329 169.884 33.6476 167.301 32.2131L170.299 26.0587ZM183.808 45.4222H62.0945V40.0173H183.808V45.4222ZM32.8511 44.7225C32.8511 45.2324 33.1034 45.1985 33.5243 45.3533C33.6583 45.4042 33.9106 45.4042 33.9106 45.5738C33.9106 45.7625 33.6416 45.7625 33.4908 45.7625C33.0542 45.7625 32.6334 45.6947 32.1957 45.6947C31.7257 45.6947 31.2713 45.7625 30.8002 45.7625C30.6661 45.7625 30.4808 45.7625 30.4808 45.5738C30.4808 45.507 30.5311 45.4042 30.7834 45.3533C31.4566 45.2165 31.7079 45.0638 31.7079 44.4002V40.7552C31.7079 40.1594 30.9007 40.4318 30.9007 40.0915C30.9007 39.8699 31.354 39.9208 31.7916 39.6314C32.6156 39.0854 32.6836 38.9497 32.7998 38.9497C32.8668 38.9497 32.9181 38.9666 32.9181 39.0684C32.9181 39.3578 32.8511 39.6473 32.8511 39.9367V44.7225ZM55.8379 41.7433C55.8044 41.8461 55.8044 42.0677 55.8044 42.3391C55.8044 43.7693 56.1907 45.1836 58.2427 45.1836C59.5378 45.1836 59.5713 44.5019 59.8393 44.5019C59.9241 44.5019 59.9911 44.5528 59.9911 44.6376C59.9911 44.7564 59.2855 46 57.5361 46C55.6861 46 54.6266 44.6716 54.6266 42.5427C54.6266 40.9418 55.6023 38.9497 57.6868 38.9497C59.6205 38.9497 60.277 40.6184 60.277 41.35C60.277 41.6574 60.2267 41.7422 59.9409 41.7422H55.8379V41.7433ZM6.99361 38.2987C6.99361 38.4068 6.96325 38.4535 6.8261 38.4535C6.73606 38.4535 6.67429 38.4068 6.65859 38.3612C6.18746 37.2205 6.62823 36.789 3.98049 36.789C3.14398 36.789 2.97647 36.913 2.97647 37.406V40.0099C2.97647 40.5177 3.05185 40.5792 4.07158 40.5792C4.36054 40.5792 4.61913 40.5177 4.9395 40.5029C6.0189 40.3799 5.59384 39.0854 6.10999 39.0854C6.20212 39.0854 6.2775 39.1151 6.2775 39.3472C6.2775 39.7787 6.24714 40.1943 6.24714 40.6258C6.24714 41.0425 6.2775 41.9511 6.2775 42.2278C6.2775 42.3974 6.21678 42.4748 6.14035 42.4748C5.94352 42.4748 5.89746 42.3052 5.7289 41.6267C5.62211 41.1962 5.50066 41.0107 3.93443 41.0107C3.1733 41.0107 2.97543 41.0573 2.97543 41.4274V44.3853C2.97543 45.031 3.14294 45.1243 4.08624 45.2632C4.3909 45.3098 4.71022 45.2801 4.71022 45.525C4.72592 45.6798 4.63484 45.7562 4.33018 45.7562C4.08728 45.7562 3.78367 45.6947 2.44358 45.6947C1.80494 45.6947 1.18096 45.7562 0.724488 45.7562C0.451235 45.7562 0.237657 45.7265 0.237657 45.5409C0.237657 45.3861 0.299427 45.3713 1.1663 45.2632C1.53168 45.2176 1.66883 45.0172 1.66883 44.0153V37.5131C1.66883 36.9586 1.59241 36.8971 1.21237 36.7879C0.664812 36.6342 0.329789 36.7731 0.329789 36.4964C0.329789 36.3278 0.4973 36.297 1.05951 36.297C1.71385 36.297 2.68751 36.3278 3.49366 36.3278C4.57411 36.3278 6.14139 36.2652 6.67429 36.2652C6.8261 36.2652 6.99361 36.3108 6.99361 36.419V38.2987ZM59.1682 40.3979C59.1682 39.818 58.6301 39.36 57.9245 39.36C56.7132 39.36 55.9908 40.5516 55.9908 41.0785C55.9908 41.1983 56.0243 41.2333 57.4533 41.2333C58.9316 41.2323 59.1682 41.0107 59.1682 40.3979ZM51.2973 44.5348C51.2973 45.0808 51.4994 45.3522 52.7431 45.3522C52.8279 45.3522 52.9619 45.3861 52.9619 45.5727C52.9619 45.7434 52.7609 45.7615 52.5756 45.7615C52.071 45.7615 51.5496 45.6936 51.046 45.6936C50.5246 45.6936 50.0033 45.7615 49.4819 45.7615C49.3646 45.7615 49.1113 45.7275 49.1113 45.5579C49.1113 45.472 49.1783 45.3692 49.2285 45.3533C49.8672 45.1985 50.154 45.1985 50.154 43.9581V41.3181C50.154 40.2452 49.4986 40.382 49.4986 40.0756C49.4986 39.9208 49.8682 39.836 50.1718 39.5646C50.6262 39.1553 50.8607 38.6783 51.0795 38.6783C51.2135 38.6783 51.2816 38.7641 51.2816 38.8818V39.3769C51.2816 39.6494 51.2816 39.819 51.4156 39.819C51.6177 39.819 52.2395 38.9518 53.0802 38.9518C53.4331 38.9518 54.0549 39.0875 54.0549 39.7183C54.0549 40.3311 53.5168 40.4848 53.1975 40.4848C52.8101 40.4848 52.4071 40.0936 52.0699 40.0936C51.5151 40.0936 51.2962 40.6545 51.2962 41.1665V44.5348H51.2973ZM41.4947 43.5827C41.4947 42.5437 41.5282 40.9598 41.5282 39.9547C41.5282 39.7162 41.2435 39.6823 41.0414 39.6314C40.6383 39.5296 40.5368 39.4946 40.5368 39.3759C40.5368 39.2221 40.7221 39.2221 40.9566 39.2221C41.1922 39.2221 41.4277 39.2561 41.68 39.2561C41.9156 39.2561 42.1679 39.2221 42.4202 39.2221C42.639 39.2221 42.6725 39.307 42.6725 39.5466C42.6725 41.0616 42.639 42.5766 42.639 44.0927C42.639 44.7903 43.1437 45.1826 43.9676 45.1826C45.8343 45.1826 45.9683 44.3811 45.9851 43.6835C45.9851 42.4738 46.0186 41.2482 46.0186 40.0395C46.0186 39.8349 45.9348 39.8349 45.1444 39.6303C45.0104 39.5964 44.6565 39.4935 44.6565 39.3578C44.6565 39.255 44.8418 39.2211 45.0271 39.2211C45.3129 39.2211 45.5988 39.255 45.8846 39.255C46.2206 39.255 46.54 39.2211 46.876 39.2211C46.9943 39.2211 47.2289 39.272 47.2289 39.5784C47.2289 41.2991 47.1618 43.0187 47.1618 44.7384C47.1618 45.0957 47.4477 45.1476 47.5995 45.1476C48.2549 45.1476 48.4737 45.1476 48.4737 45.3172C48.4737 45.4529 48.3899 45.4879 48.1376 45.5208C46.9598 45.7095 46.2709 45.8611 46.1201 45.8611C45.9851 45.8611 45.9851 45.7424 45.9851 45.5886V45.1964C45.9851 45.0607 45.9516 44.9928 45.8678 44.9928C45.5988 44.9928 44.8753 45.9979 43.5132 45.9979C41.9313 46 41.4947 45.0289 41.4947 43.5827ZM37.6943 40.0067C37.2232 40.0067 37.1729 40.1424 37.1729 40.6873C37.1729 41.6076 37.1227 43.0208 37.1227 43.975C37.1227 44.6726 37.3917 45.0819 38.2827 45.0819C38.9883 45.0819 38.9883 44.8942 39.3255 44.8942C39.4427 44.8942 39.5108 44.9451 39.5108 45.0638C39.5108 45.2335 39.0229 45.8304 37.7959 45.8304C36.5343 45.8304 35.9459 45.3543 35.9459 44.0768C35.9459 42.9021 35.9794 41.7274 35.9794 40.399C35.9794 40.1594 35.8956 40.1095 35.6098 40.1095H35.2392C35.189 40.1095 35.1052 40.0767 35.1052 39.9738C35.1052 39.7013 35.9124 39.5646 36.3322 39.0875C36.9709 38.3719 36.8369 38.0835 37.0892 38.0835C37.2902 38.0835 37.2902 38.2202 37.2902 38.4068V39.0377C37.2902 39.1914 37.3237 39.2592 37.5592 39.2592H39.3747C39.5432 39.2592 39.6772 39.2932 39.6772 39.6346C39.6772 39.8551 39.6605 40.0099 39.3914 40.0099H37.6943V40.0067ZM33.0029 35.9355C33.0029 36.3108 32.6501 36.6681 32.2795 36.6681C31.9089 36.6681 31.5571 36.3098 31.5571 35.9355C31.5571 35.5613 31.9099 35.205 32.2795 35.205C32.6501 35.205 33.0029 35.5613 33.0029 35.9355ZM22.9805 41.1464C22.9805 40.1933 22.2571 40.5336 22.2571 40.1933C22.2571 40.0236 22.5094 40.0067 22.9135 39.6324C23.2998 39.2741 23.8212 38.7291 23.9887 38.7291C24.0735 38.7291 24.1573 38.797 24.1573 38.9507V39.836C24.8462 39.326 25.3843 38.9507 26.293 38.9507C28.5461 38.9507 28.5628 40.6523 28.5628 41.4199V44.6037C28.5628 44.9949 28.5806 45.2854 29.034 45.3533C29.2695 45.3872 29.6223 45.4042 29.6223 45.5738C29.6223 45.7445 29.5051 45.7625 29.2695 45.7625C28.7816 45.7625 28.277 45.6947 27.9242 45.6947C27.4363 45.6947 27.0667 45.7625 26.6972 45.7625C26.4951 45.7625 26.3611 45.7445 26.3611 45.5918C26.3611 45.4222 26.5129 45.3702 26.5967 45.3533C27.0678 45.2504 27.4206 45.2335 27.4206 44.3312V41.5047C27.4206 40.823 27.3368 39.6664 26.0083 39.6664C24.9655 39.6664 24.1761 40.2792 24.1583 40.4657C24.1248 40.8919 24.1248 41.2832 24.1248 41.6924V44.3312C24.1248 44.9271 24.1416 45.2335 24.8818 45.3533C25.1006 45.3872 25.3864 45.3872 25.3864 45.5738C25.3864 45.7445 25.1843 45.7625 25.0158 45.7625C25.0158 45.7625 25.0325 45.7625 25.0158 45.7625C24.8472 45.7625 24.2086 45.6947 23.8055 45.6947C23.3009 45.6947 22.9648 45.7625 22.6277 45.7625C22.5104 45.7625 22.0895 45.7625 22.0895 45.5738C22.0895 45.4381 22.2414 45.3702 22.3419 45.3533C22.7962 45.2674 22.9805 44.9101 22.9805 44.0938V41.1464ZM18.6084 44.5348C18.6084 45.0808 18.8105 45.3522 20.0543 45.3522C20.138 45.3522 20.272 45.3861 20.272 45.5727C20.272 45.7434 20.071 45.7615 19.8857 45.7615C19.3811 45.7615 18.8597 45.6936 18.3561 45.6936C17.8348 45.6936 17.3134 45.7615 16.792 45.7615C16.6747 45.7615 16.4224 45.7275 16.4224 45.5579C16.4224 45.472 16.4894 45.3692 16.5397 45.3533C17.1794 45.1985 17.4652 45.1985 17.4652 43.9581V41.3181C17.4652 40.2452 16.8098 40.382 16.8098 40.0756C16.8098 39.9208 17.1804 39.836 17.483 39.5646C17.9374 39.1553 18.1729 38.6783 18.3907 38.6783C18.5247 38.6783 18.5927 38.7641 18.5927 38.8818V39.3769C18.5927 39.6494 18.5927 39.819 18.7268 39.819C18.9288 39.819 19.5507 38.9518 20.3914 38.9518C20.7442 38.9518 21.3672 39.0875 21.3672 39.7183C21.3672 40.3311 20.829 40.4848 20.5097 40.4848C20.1234 40.4848 19.7193 40.0936 19.3832 40.0936C18.8283 40.0936 18.6095 40.6545 18.6095 41.1665V44.5348H18.6084ZM8.80588 43.5827C8.80588 42.5437 8.83938 40.9598 8.83938 39.9547C8.83938 39.7162 8.55356 39.6823 8.3515 39.6314C7.94843 39.5296 7.84687 39.4946 7.84687 39.3759C7.84687 39.2221 8.03218 39.2221 8.2667 39.2221C8.50226 39.2221 8.73782 39.2561 8.99014 39.2561C9.2257 39.2561 9.47802 39.2221 9.72929 39.2221C9.9481 39.2221 9.9816 39.307 9.9816 39.5466C9.9816 41.0616 9.9481 42.5766 9.9481 44.0927C9.9481 44.7903 10.4527 45.1826 11.2767 45.1826C13.1434 45.1826 13.2784 44.3811 13.2941 43.6835C13.2941 42.4738 13.3276 41.2482 13.3276 40.0395C13.3276 39.8349 13.2439 39.8349 12.4534 39.6303C12.3194 39.5964 11.9666 39.4935 11.9666 39.3578C11.9666 39.255 12.1519 39.2211 12.3362 39.2211C12.622 39.2211 12.9078 39.255 13.1936 39.255C13.5297 39.255 13.849 39.2211 14.1861 39.2211C14.3034 39.2211 14.539 39.272 14.539 39.5784C14.539 41.2991 14.472 43.0187 14.472 44.7384C14.472 45.0957 14.7567 45.1476 14.9085 45.1476C15.5639 45.1476 15.7827 45.1476 15.7827 45.3172C15.7827 45.4529 15.6979 45.4879 15.4467 45.5208C14.2688 45.7095 13.58 45.8611 13.4292 45.8611C13.2941 45.8611 13.2941 45.7424 13.2941 45.5886V45.1964C13.2941 45.0607 13.2606 44.9928 13.1769 44.9928C12.9078 44.9928 12.1844 45.9979 10.8223 45.9979C9.24245 46 8.80588 45.0289 8.80588 43.5827Z" fill="#CDCDCD"/>
</svg>
