<svg width="60" height="60" viewBox="0 0 60 60" fill="none" xmlns="http://www.w3.org/2000/svg">
<g clip-path="url(#clip0_66_498)">
<path d="M17.3775 7.33628C17.665 7.04878 17.9738 6.79378 18.2913 6.55128C17.2438 5.55378 15.8788 4.99878 14.4238 4.99878C11.2863 4.99878 8.74878 7.53628 8.74878 10.6738V22.4988H11.2488V10.675C11.2488 8.92503 12.6738 7.50003 14.4238 7.50003C15.2088 7.50003 15.9538 7.79503 16.5388 8.32378C16.7925 7.98003 17.0663 7.64628 17.3763 7.33628H17.3775Z" fill="#152D32"/>
<path d="M21.0374 19.0687C20.8186 19.0687 20.5986 19.0112 20.4011 18.895C19.8911 18.5925 19.4899 18.29 19.1424 17.9412C16.7086 15.5062 16.7086 11.54 19.1449 9.10374C21.5811 6.66749 25.5461 6.66749 27.9824 9.10374C28.3299 9.45124 28.6336 9.85249 28.9349 10.3612C29.2236 10.8537 29.1449 11.4787 28.7424 11.8812L21.9211 18.7025C21.6811 18.9425 21.3611 19.0687 21.0374 19.0687Z" fill="#152D32"/>
<path d="M51.25 54.6625C50.05 55.35 48.525 54.95 47.8375 53.75L47.75 53.65C49.2875 52.975 50.7 52.0625 51.95 50.975L52.1625 51.25C52.85 52.45 52.45 53.975 51.25 54.6625Z" fill="#152D32"/>
<path d="M12.2499 53.65L12.1624 53.75C11.4749 54.95 9.94988 55.35 8.74988 54.6625C7.54988 53.975 7.14988 52.45 7.83738 51.25L8.04988 50.975C9.29988 52.0625 10.7124 52.975 12.2499 53.65Z" fill="#152D32"/>
<path d="M54.375 33.75H5.625C5.4125 33.75 5.2 33.7375 5 33.7125V38.75C5 46.3375 11.1625 52.5 18.75 52.5H41.25C48.8375 52.5 55 46.3375 55 38.75V33.7125C54.8 33.7375 54.5875 33.75 54.375 33.75Z" fill="#152D32"/>
<path d="M54.375 25H5.625C3.89911 25 2.5 26.3991 2.5 28.125C2.5 29.8509 3.89911 31.25 5.625 31.25H54.375C56.1009 31.25 57.5 29.8509 57.5 28.125C57.5 26.3991 56.1009 25 54.375 25Z" fill="#152D32"/>
</g>
<defs>
<clipPath id="clip0_66_498">
<rect width="60" height="60" fill="white"/>
</clipPath>
</defs>
</svg>
