<svg width="60" height="60" viewBox="0 0 60 60" fill="none" xmlns="http://www.w3.org/2000/svg">
<g clip-path="url(#clip0_66_479)">
<path d="M43.9998 7.99982H16.0002C13.8006 7.99982 12 9.80102 12 12V28.0002H16.0002V22.0002C16.0002 20.9004 16.9008 19.9998 18 19.9998H25.9998C27.0996 19.9998 27.9996 20.9004 27.9996 22.0002V28.0002H31.9998V22.0002C31.9998 20.9004 32.9004 19.9998 34.0002 19.9998H42C43.0998 19.9998 43.9998 20.9004 43.9998 22.0002V28.0002H48V12C48 9.80102 46.1994 7.99982 43.9998 7.99982Z" fill="white"/>
<path d="M54 44.0004H6V48H10.0002V52.0002H13.9998V48H46.0002V52.0002H49.9998V48H54V44.0004Z" fill="white"/>
<path d="M52.0002 40.0002V36C52.0002 33.801 50.199 32.0004 48 32.0004H12C9.79976 32.0004 7.99976 33.801 7.99976 36V40.0002H52.0002Z" fill="white"/>
</g>
<defs>
<clipPath id="clip0_66_479">
<rect width="60" height="60" fill="white"/>
</clipPath>
</defs>
</svg>
