<svg width="60" height="60" viewBox="0 0 60 60" fill="none" xmlns="http://www.w3.org/2000/svg">
<g clip-path="url(#clip0_66_487)">
<path d="M30 12C20.058 12 12 20.058 12 30C12 39.942 20.058 48 30 48C39.942 48 48 39.942 48 30C48 20.058 39.942 12 30 12ZM30 44C22.268 44 16 37.734 16 30C16 22.266 22.268 16 30 16C37.732 16 44 22.266 44 30C44 37.734 37.732 44 30 44Z" fill="#152D32"/>
<path d="M30 42C36.6274 42 42 36.6274 42 30C42 23.3726 36.6274 18 30 18C23.3726 18 18 23.3726 18 30C18 36.6274 23.3726 42 30 42Z" fill="#152D32"/>
<path d="M8 12V22H6V12H4V22H2V12H0V26H4V48H6V26H10V12H8Z" fill="#152D32"/>
<path d="M60 20C60 15.582 57.762 12 55 12C52.238 12 50 15.582 50 20C50 23.872 51.718 27.098 54 27.84V48H56V27.84C58.284 27.098 60 23.872 60 20Z" fill="#152D32"/>
</g>
<defs>
<clipPath id="clip0_66_487">
<rect width="60" height="36" fill="white" transform="translate(0 12)"/>
</clipPath>
</defs>
</svg>
