<svg width="60" height="60" viewBox="0 0 60 60" fill="none" xmlns="http://www.w3.org/2000/svg">
<g clip-path="url(#clip0_66_467)">
<path d="M24.964 16.072C28.0377 16.072 30.5294 13.5935 30.5294 10.536C30.5294 7.47855 28.0377 5 24.964 5C21.8904 5 19.3987 7.47855 19.3987 10.536C19.3987 13.5935 21.8904 16.072 24.964 16.072Z" fill="#152D32"/>
<path d="M16.726 38.5127C16.9829 38.5951 17.2549 38.6425 17.5362 38.655C18.0123 38.7105 18.4895 38.7232 18.9478 38.7174C19.3624 38.7122 19.7345 38.6996 20.0653 38.6619H27.3449L31.0258 52.7C31.3885 54.0834 32.6423 55 34.0155 55C34.2737 55 34.5363 54.9676 34.7979 54.8997C36.4502 54.471 37.4403 52.7911 37.0093 51.1475L32.7255 34.8102C32.3704 33.4558 31.1408 32.5108 29.7337 32.5108H21.8737C21.8833 30.9185 22.0652 29.2901 22.3126 27.7267L17.744 22.6952C17.288 22.1929 17.0556 21.5439 17.0904 20.8678C17.1249 20.1918 17.422 19.5696 17.9269 19.1159C18.3962 18.6945 19.0023 18.4624 19.6342 18.4624C20.354 18.4624 21.0431 18.7669 21.5253 19.2979L27.8479 26.2613H35.1935L37.1425 25.7865C38.204 25.5279 38.8537 24.4624 38.5938 23.4065C38.3339 22.3506 37.2631 21.7048 36.2011 21.9628L28.2694 23.895L22.4448 17.3699C22.3485 17.2622 22.2426 17.1684 22.1302 17.0867C21.8041 16.8086 21.4271 16.6036 21.001 16.4979C18.8893 15.9741 15.8284 17.115 14.5829 20.7177C12.8998 25.6814 12.5379 28.9121 13.1776 34.378C13.7057 37.0817 15.1449 38.129 16.726 38.5127Z" fill="#152D32"/>
<path d="M33.6006 33.983H46.875V52.2723H38.1765V54.4047H55.862V52.2723H50.7089V33.983H55.862V31.8506H33.6006V33.983Z" fill="#152D32"/>
<path d="M9.38946 41.1529C9.87317 42.2084 12.4346 43.0539 15.7366 43.2704V43.7059H16.7879V48.886L9.55295 51.1003V52.0066C9.08937 52.2341 8.76965 52.7075 8.76965 53.2565C8.76965 54.0265 9.39717 54.6507 10.1713 54.6507C10.9454 54.6507 11.5729 54.0265 11.5729 53.2565C11.5729 52.7087 11.2546 52.2361 10.7927 52.0081L16.7879 50.1732V52.0066C16.3243 52.2341 16.0046 52.7075 16.0046 53.2565C16.0046 54.0265 16.6321 54.6507 17.4062 54.6507C18.1804 54.6507 18.8079 54.0265 18.8079 53.2565C18.8079 52.7076 18.4882 52.2341 18.0247 52.0067V50.1732L24.0198 52.0081C23.5579 52.2361 23.2396 52.7087 23.2396 53.2565C23.2396 54.0265 23.8671 54.6507 24.6412 54.6507C25.4153 54.6507 26.0429 54.0265 26.0429 53.2565C26.0429 52.7076 25.7232 52.2341 25.2596 52.0067V51.1003L18.0247 48.886V43.7059H19.0759V43.2704C22.7486 43.0296 25.5069 42.0108 25.5069 40.7902C25.5069 39.6074 13.9384 39.4242 10.3528 40.2404L7.57977 32.8944C8.76218 34.7295 9.98067 35.7701 10.8012 35.4636C12.1185 34.9715 6.42327 19.8842 5.10598 20.3762C4.03229 20.7772 3.97159 23.3603 4.83734 26.5579C4.73958 26.5449 4.63782 26.5521 4.53906 26.589C4.21936 26.7085 4.05752 27.0631 4.17758 27.3811L9.33665 41.048C9.35079 41.0855 9.36917 41.12 9.38946 41.1529Z" fill="#152D32"/>
<path d="M38.9949 30.7639H47.7017C47.972 30.7639 48.2208 30.6177 48.3515 30.3823L54.5147 19.2693L53.2152 18.5562L47.2636 29.2876H39.8921C39.7744 29.8795 39.4492 30.3975 38.9949 30.7639Z" fill="#152D32"/>
<path d="M21.1032 19.6772C20.371 18.8707 19.1195 18.8073 18.3084 19.5358C17.4975 20.2644 17.4338 21.5092 18.1664 22.3159L25.2477 30.1149C25.6228 30.528 26.1564 30.7639 26.7161 30.7639H36.2412H37.3934C38.4862 30.7639 39.3722 29.8827 39.3722 28.7955C39.3722 27.7084 38.4862 26.8272 37.3934 26.8272H27.5954L21.1032 19.6772Z" fill="#152D32"/>
</g>
<defs>
<clipPath id="clip0_66_467">
<rect width="60" height="60" fill="white"/>
</clipPath>
</defs>
</svg>
